<svg width="32" height="32" viewBox="0 0 32 32" fill="none" xmlns="http://www.w3.org/2000/svg">
<circle cx="16" cy="16" r="16" fill="#2B2F3F"/>
<path d="M18.9867 23.9999V17.7699H19.9767L21.1867 20.6299L22.3967 17.7599H23.3867V23.9999H22.4067V19.6499L21.4267 21.9399H20.8767L19.9567 19.6599V23.9999H18.9867Z" fill="#EBEBEB"/>
<path d="M15.8267 24.02L13.8267 17.77H14.9467L16.2567 22.15L17.4767 17.77H18.5667L16.5867 24.02H15.8267Z" fill="#EBEBEB"/>
<path d="M9.17667 24V17.77H13.2367V18.69H10.2767V20.29H12.7067V21.22H10.2767V23.08H13.2067V24H9.17667Z" fill="#EBEBEB"/>
<path d="M19.2367 7.10333H20.3667H20.4667V7.19333C20.4267 7.23333 20.4 7.27667 20.3867 7.32333C20.38 7.37 20.3767 7.45 20.3767 7.56333V12.4133H23.2367V13.3333H19.2367V7.10333Z" fill="#EBEBEB"/>
<path d="M14.2367 7.10333H15.3667H15.4667V7.19333C15.4267 7.23333 15.4 7.27667 15.3867 7.32333C15.38 7.37 15.3767 7.45 15.3767 7.56333V12.4133H18.2367V13.3333H14.2367V7.10333Z" fill="#EBEBEB"/>
<path d="M12.3367 11.8833H9.89668L10.0567 11.0733H12.1467L12.3367 11.8833ZM11.1667 9.15329L9.90668 13.3333H8.78668L10.8967 7.06329H11.4367L13.5467 13.3333H12.4067L11.1667 9.15329Z" fill="#EBEBEB"/>
</svg>
