<svg width="24" height="24" viewBox="0 0 24 24" fill="none" xmlns="http://www.w3.org/2000/svg">
<circle cx="12" cy="12" r="12" fill="white"/>
<mask id="mask0_4760_334" style="mask-type:alpha" maskUnits="userSpaceOnUse" x="0" y="0" width="24" height="24">
<circle cx="12" cy="12" r="12" fill="white"/>
</mask>
<g mask="url(#mask0_4760_334)">
<path d="M-0.799988 12.3282C-0.799988 18.0484 2.76573 22.9246 7.7943 24.7062C8.4343 24.8938 8.34287 24.4249 8.34287 24.0498V21.7993C4.50287 22.2681 4.32001 19.6425 4.04573 19.1736C3.49716 18.2359 2.30858 18.0484 2.6743 17.5795C3.58858 17.1106 4.50287 17.6733 5.50858 19.2674C6.24001 20.3927 7.70287 20.2051 8.52573 20.0176C8.70858 19.3612 9.0743 18.7048 9.53144 18.2359C5.41716 17.5795 3.77144 15.0476 3.77144 12.0469C3.77144 10.6403 4.22858 9.23371 5.14287 8.20221C4.50287 6.42053 5.14287 4.82639 5.2343 4.63884C6.88001 4.45129 8.61716 5.85789 8.80001 5.95166C9.7143 5.67034 10.8114 5.57657 12 5.57657C13.1886 5.57657 14.2857 5.76411 15.2 5.95166C15.5657 5.67034 17.12 4.54507 18.6743 4.63884C18.7657 4.82639 19.4057 6.32675 18.8572 8.10844C19.7714 9.23371 20.2286 10.5465 20.2286 11.9531C20.2286 14.9539 18.5829 17.4857 14.4686 18.2359C15.1086 18.8923 15.5657 19.8301 15.5657 20.9553V24.2374C15.5657 24.5187 15.5657 24.8 16.0229 24.8C21.1429 23.0183 24.8 18.1421 24.8 12.3282C24.8 5.10771 19.04 -0.799988 12 -0.799988C4.96001 -0.799988 -0.799988 5.10771 -0.799988 12.3282Z" fill="#0E100F"/>
</g>
</svg>
